<?xml version="1.0" encoding="utf-8"?>
<!-- Svg Vector Icons : http://www.sfont.cn -->
<!DOCTYPE svg PUBLIC "-//W3C//DTD SVG 1.1//EN" "http://www.w3.org/Graphics/SVG/1.1/DTD/svg11.dtd">
<svg version="1.1" xmlns="http://www.w3.org/2000/svg" xmlns:xlink="http://www.w3.org/1999/xlink" x="0px" y="0px" viewBox="0 0 1000 1000" enable-background="new 0 0 1000 1000" xml:space="preserve">
<metadata> Svg Vector Icons : http://www.sfont.cn </metadata>
<g><g><path d="M500,10C229.4,10.1,10.1,229.4,10,500c0.1,270.7,219.4,490,490,490c270.7-0.1,490-219.4,490-490C990,229.4,770.6,10.1,500,10z M363.1,94.1c-33,38.1-68.4,91.1-95.4,160.9H148.6C200.6,180.7,275.5,123.7,363.1,94.1z M113.2,316.3h134.4c-12.1,45.1-19.9,96.2-22,153.1H72.8C76.8,414.8,90.9,363.2,113.2,316.3z M72.8,530.7h152.8c2.2,56.9,10,108,22,153.1H113.3C90.9,636.8,76.8,585.2,72.8,530.7z M148.7,745h119c26.9,69.7,62.3,122.7,95.3,160.8C275.5,876.2,200.7,819.3,148.7,745z M469.4,922.3c-28.8-21.6-91.6-76.5-135.8-177.3h135.8V922.3z M469.4,683.7H311c-13.1-44-21.9-95.1-24.3-153.1h182.7V683.7z M469.4,469.4H286.9c2.5-58.3,11.5-109.1,24.7-153.1h157.9V469.4z M469.4,255H333.5c16.2-36.8,34.8-67.6,53.4-92.9C412,128,437,103.9,455.5,88.5c5.3-4.4,9.9-7.9,13.9-10.9V255z M927.1,469.4H774.4c-2.2-56.9-10-108-22.1-153.1h134.4C909.1,363.2,923.2,414.8,927.1,469.4z M851.4,255H732.3c-27-69.8-62.4-122.9-95.4-160.9C724.5,123.7,799.4,180.7,851.4,255z M530.6,255.1V77.7c28.8,21.6,91.6,76.6,135.8,177.3L530.6,255.1L530.6,255.1z M530.6,316.3h158.3c13.1,44,21.9,95.1,24.3,153.1H530.6V316.3z M530.6,530.6h182.5c-2.5,58.2-11.5,109.1-24.7,153.1H530.6V530.6z M544.5,911.5c-5.3,4.4-9.9,7.8-13.9,10.9V745h135.9c-16.1,36.8-34.9,67.6-53.4,92.8C588,871.9,563,896.1,544.5,911.5z M636.9,905.8c33-38.1,68.4-91.1,95.3-160.8h119.1C799.3,819.3,724.5,876.2,636.9,905.8z M886.7,683.7H752.3c12-45.1,19.8-96.2,22.1-153.1h152.7C923.1,585.2,909.1,636.7,886.7,683.7z"/></g><g></g><g></g><g></g><g></g><g></g><g></g><g></g><g></g><g></g><g></g><g></g><g></g><g></g><g></g><g></g></g>
</svg>